<svg xmlns="http://www.w3.org/2000/svg" width="2400" height="2453" viewBox="0 0 2400 2453" version="1.1"><path d="" stroke="none" fill="#080404" fill-rule="evenodd"/><path d="M 1.550 2.749 C 2.529 4.262, 213.211 310.962, 469.731 684.304 C 726.251 1057.646, 935.989 1363.473, 935.815 1363.919 C 935.642 1364.366, 725.125 1609.227, 468 1908.056 C 210.875 2206.885, 0.350 2451.746, 0.167 2452.191 C -0.017 2452.636, 47.683 2452.970, 106.167 2452.933 L 212.500 2452.866 621.397 1977.399 C 846.291 1715.892, 1030.661 1502.059, 1031.109 1502.216 C 1031.556 1502.372, 1178.795 1716.250, 1358.306 1977.500 L 1684.690 2452.500 2042.511 2452.500 C 2347.002 2452.500, 2400.402 2452.293, 2400.796 2451.111 C 2401.051 2450.347, 2400.809 2450, 2400.259 2450.340 C 2399.709 2450.680, 2180.928 2133.215, 1914.079 1744.863 C 1483.313 1117.956, 1429.058 1038.584, 1430.303 1037.134 C 1437.836 1028.360, 2319.651 3.055, 2320.787 1.750 C 2322.236 0.085, 2317.156 0, 2215.882 0 L 2109.455 0 1722.114 450.250 C 1509.076 697.888, 1334.486 900.374, 1334.136 900.219 C 1333.786 900.065, 1194.447 697.565, 1024.493 450.219 L 715.486 0.500 357.627 0.249 L -0.232 -0.003 1.550 2.749 M 293.269 166.250 C 297.639 172.394, 869.759 990.761, 1475.271 1857 C 1644.625 2099.275, 1783.724 2298.064, 1784.382 2298.753 C 1785.332 2299.749, 1818.738 2299.954, 1947.235 2299.753 L 2108.893 2299.500 1404.900 1292.500 C 1017.704 738.650, 681.241 257.290, 657.204 222.811 L 613.500 160.122 451.162 160.061 L 288.824 160 293.269 166.250" stroke="none" fill="#040404" fill-rule="evenodd"/></svg>